<svg width="199" height="199" viewBox="0 0 199 199" fill="none" xmlns="http://www.w3.org/2000/svg">
<rect width="199" height="199" rx="45" fill="#62EFFF"/>
<path d="M142.5 61C149.404 61 155 66.5964 155 73.5C155 80.4036 149.404 86 142.5 86C135.596 86 130 80.4036 130 73.5C130 66.5964 135.596 61 142.5 61Z" fill="white" stroke="white"/>
<path d="M57.5 61C64.4036 61 70 66.5964 70 73.5C70 80.4036 64.4036 86 57.5 86C50.5964 86 45 80.4036 45 73.5C45 66.5964 50.5964 61 57.5 61Z" fill="white" stroke="white"/>
<path d="M48.0808 119.876L56.0363 135.58C63.4349 150.184 81.1185 156.238 95.9158 149.234L163.268 117.354L163.713 117.333C164.062 117.316 164.294 116.964 164.172 116.636C157.871 104.257 142.891 99.1012 130.306 104.982L96.5487 120.757C87.8489 124.823 77.4949 121.19 73.2433 112.579L71.1491 108.338C68.0092 101.979 60.3239 99.3485 53.9459 102.45C47.4661 105.6 44.8246 113.449 48.0808 119.876Z" fill="white"/>
<path d="M163.302 117.338L163.268 117.354M163.268 117.354L95.9158 149.234C81.1185 156.238 63.4349 150.184 56.0363 135.58L48.0808 119.876C44.8246 113.449 47.4661 105.6 53.9459 102.45V102.45C60.3239 99.3485 68.0092 101.979 71.1491 108.338L73.2433 112.579C77.4949 121.19 87.8489 124.823 96.5487 120.757L130.306 104.982C142.891 99.1012 157.871 104.257 164.172 116.636V116.636V116.636C164.294 116.964 164.062 117.316 163.713 117.333L163.268 117.354Z" stroke="white"/>
</svg>
